<svg height="512pt" viewBox="-25 0 512 512.001" width="512pt" xmlns="http://www.w3.org/2000/svg">
    <path d="M72.793 512H389.18c30.96 0 45.625-38.05 22.761-58.93-36.304-33.156-94.91-67.965-180.957-67.965-86.043 0-144.648 34.81-180.953 67.965C27.168 473.95 41.832 512 72.793 512zm0 0" fill="#c3dfed"/>
    <path d="M313.926 397.074c-24.215-7.402-51.77-11.965-82.938-11.965-86.047 0-144.652 34.805-180.957 67.961C27.168 473.95 41.832 512 72.793 512h158.195c72.774-26.195 81.82-99.02 82.938-114.926zm0 0" fill="#a6cddd"/>
    <path d="M360.516 377.113H101.457S-23.68 467.422 230.984 512c254.668-44.578 129.532-134.887 129.532-134.887zm0 0" fill="#ff929f"/>
    <path d="M314.078 393.992v-16.879H101.457S-23.68 467.422 230.984 512c81.907-29.48 83.094-118.008 83.094-118.008zm0 0" fill="#ff737d"/>
    <path d="M116.363 299.129c0 29.644-24.031 53.676-53.675 53.676S9.011 328.773 9.011 299.129c0-29.64 24.031-53.672 53.675-53.672s53.676 24.031 53.676 53.672zm0 0" fill="#ffaea1"/>
    <path d="M452.96 299.129c0 29.644-24.03 53.676-53.675 53.676-29.644 0-53.676-24.032-53.676-53.676 0-29.64 24.032-53.672 53.676-53.672 29.645 0 53.676 24.031 53.676 53.672zm0 0" fill="#ffcfc2"/>
    <path d="M230.988 458.027c-92.566 0-168.3-75.734-168.3-168.297v-87.343c0-92.563 75.734-168.297 168.3-168.297 92.563 0 168.297 75.734 168.297 168.297v87.343c0 92.563-75.734 168.297-168.297 168.297zm0 0" fill="#ffe2d9"/>
    <path d="M230.988 34.09c-92.566 0-168.3 75.734-168.3 168.297v87.343c0 61.579 33.53 115.72 83.222 145.06-8.41-38.716-7.812-77.528-4.375-109.052 3.813-35.008 21.086-67.23 48.09-89.843 54.39-45.543 70.191-137.47 74.484-198.512a167.51 167.51 0 0 0-33.12-3.293zm0 0" fill="#ffcfc2"/>
    <path d="M132.137 212.063s-10.825 35.992-44.88 58.183c-12.66 8.254-29.722 1.453-33.343-13.219-4.992-20.234-8.605-51.242.762-87.218-.883-.88 77.46 42.253 77.46 42.253zm0 0M329.836 212.063s10.82 35.992 44.879 58.183c12.66 8.254 29.722 1.453 33.344-13.219 4.992-20.234 8.601-51.242-.762-87.218.883-.88-77.461 42.253-77.461 42.253zm0 0" fill="#898890"/>
    <g fill="#57565c">
        <path d="M314.078 310.223a7.726 7.726 0 0 1-7.726-7.727v-12.828a7.726 7.726 0 1 1 15.453 0v12.828a7.729 7.729 0 0 1-7.727 7.727zm0 0M147.895 310.223a7.729 7.729 0 0 1-7.727-7.727v-12.828a7.726 7.726 0 1 1 15.453 0v12.828a7.726 7.726 0 0 1-7.726 7.727zm0 0M230.988 318.313c-10 0-20-3.239-28.347-9.711a7.724 7.724 0 0 1-1.368-10.84 7.728 7.728 0 0 1 10.84-1.371 30.777 30.777 0 0 0 37.746 0 7.728 7.728 0 0 1 10.84 1.37 7.721 7.721 0 0 1-1.37 10.84 46.15 46.15 0 0 1-28.34 9.712zm0 0"/>
    </g>
    <path d="M230.988 47.469S130.141 85.559 40.91 77.149C14.996 74.702-5.523 98.956 1.34 124.065c14.172 51.868 64.3 121.391 229.648 121.391 165.344 0 215.473-69.523 229.649-121.39 6.86-25.106-13.66-49.36-39.575-46.919-89.226 8.41-190.074-29.68-190.074-29.68zm0 0" fill="#c68d6d"/>
    <path d="M328.188 165.695V72.56c-54.454-8.946-97.204-25.09-97.204-25.09s-100.847 38.09-190.078 29.68c-25.914-2.446-46.43 21.808-39.57 46.917 13.004 47.582 56.242 110.02 190.953 120.012 98.04-20.02 135.899-78.383 135.899-78.383zm0 0" fill="#b2785b"/>
    <path d="M264.852 1.648c-14.118 4.45-33.864 10.766-33.864 10.766s-19.75-6.316-33.863-10.766c-9.293-2.93-19.41-1.937-27.89 2.864-53.34 30.199-79.25 79.21-91.106 111.23-6.469 17.477 3.465 36.727 21.398 41.79 28.063 7.921 74.012 17.558 131.461 17.558s103.399-9.637 131.461-17.559c17.934-5.062 27.867-24.312 21.395-41.789-11.852-32.02-37.766-81.031-91.102-111.23-8.48-4.805-18.597-5.793-27.89-2.864zm0 0" fill="#dd9f80"/>
    <path d="M131.266 32.863c-28.52 27.45-44.536 59.64-53.137 82.88-6.469 17.476 3.46 36.726 21.398 41.788 25.48 7.192 65.715 15.801 115.914 17.324-54.98-34.402-76.37-104.101-84.175-141.992zm0 0" fill="#c68d6d"/>
</svg>
