<svg height="512pt" viewBox="-11 0 511 512" width="512pt" xmlns="http://www.w3.org/2000/svg"><path d="m358.972656 512c0-60.847656-45.09375-90.402344-45.09375-90.402344h-137.207031s-45.09375 29.554688-45.09375 90.402344zm0 0" fill="#4b5562"/><g fill="#393f50"><path d="m207.574219 421.597656h-30.902344s-45.09375 29.554688-45.09375 90.402344h30.90625c0-60.847656 45.089844-90.402344 45.089844-90.402344zm0 0"/><path d="m295.40625 512v-37.6875c0-4.265625 3.457031-7.726562 7.726562-7.726562 4.265626 0 7.726563 3.460937 7.726563 7.726562v37.6875zm0 0"/><path d="m179.691406 512v-37.6875c0-4.265625 3.457032-7.726562 7.726563-7.726562s7.726562 3.460937 7.726562 7.726562v37.6875zm0 0"/></g><path d="m31.949219 144.214844c-10.851563 26.953125-16.546875 56-16.546875 85.933594h459.746094c0-29.933594-5.699219-58.980469-16.550782-85.933594zm0 0" fill="#e7a25d"/><path d="m440.929688 113.511719-195.65625 29.921875-195.65625-29.921875c9.839843-17.1875 22.039062-33.167969 36.421874-47.550781 42.53125-42.53125 99.089844-65.960938 159.234376-65.960938 60.148437 0 116.703124 23.429688 159.234374 65.960938 14.382813 14.382812 26.582032 30.363281 36.421876 47.550781zm0 0" fill="#4b5562"/><path d="m80.523438 113.511719c9.839843-17.1875 22.039062-33.167969 36.421874-47.550781 38.867188-38.867188 89.453126-61.769532 143.78125-65.429688-5.121093-.34375-10.273437-.53125-15.453124-.53125-60.144532 0-116.703126 23.429688-159.234376 65.960938-14.382812 14.382812-26.582031 30.363281-36.421874 47.550781l195.65625 29.921875 15.453124-2.363282zm0 0" fill="#393f50"/><path d="m83.382812 251.378906c0 22.886719-18.554687 41.441406-41.441406 41.441406-22.886718 0-41.441406-18.554687-41.441406-41.441406 0-22.886718 18.554688-41.441406 41.441406-41.441406 22.886719 0 41.441406 18.554688 41.441406 41.441406zm0 0" fill="#ffcabd"/><path d="m490.046875 251.378906c0 22.886719-18.550781 41.441406-41.441406 41.441406-22.886719 0-41.4375-18.554687-41.4375-41.441406 0-22.886718 18.550781-41.441406 41.4375-41.441406 22.890625 0 41.441406 18.554688 41.441406 41.441406zm0 0" fill="#ffcabd"/><path d="m448.609375 230.148438c0 112.296874-91.039063 203.335937-203.335937 203.335937-112.292969 0-203.335938-91.039063-203.335938-203.335937l203.335938-52.480469zm0 0" fill="#ffdcce"/><path d="m245.292969 433.484375c3.675781 0 7.351562-.105469 11.019531-.300781 1.476562-.078125 2.949219-.167969 4.414062-.277344-105.074218-7.898438-187.882812-95.660156-187.882812-202.757812 0-2.683594.058594-5.355469.160156-8.015626l-31.066406 8.015626c0 10.363281.777344 20.722656 2.34375 30.964843 6 39.257813 23.78125 76.378907 50.480469 105.753907 38.328125 42.167968 93.546875 66.617187 150.53125 66.617187zm0 0" fill="#ffcabd"/><path d="m50 173.355469c-5.238281 18.023437-8.0625 37.078125-8.0625 56.792969 0 0 22.121094 57.855468 89.640625 57.855468 67.515625 0 55.308594-57.855468 113.695313-57.855468 58.386718 0 46.179687 57.855468 113.695312 57.855468s89.640625-57.855468 89.640625-57.855468c0-19.714844-2.824219-38.769532-8.0625-56.792969zm0 0" fill="#4b5562"/><path d="m41.9375 230.148438s9.5625 25 35.289062 42.132812c-2.863281-13.59375-4.382812-27.6875-4.382812-42.132812 0-19.714844 2.824219-38.769532 8.0625-56.792969h-30.90625c-3.273438 11.265625-5.601562 22.929687-6.890625 34.910156-.128906 1.199219-.25 2.398437-.355469 3.605469-.539062 6.019531-.816406 12.117187-.816406 18.277344zm0 0" fill="#393f50"/><path d="m184.886719 194.585938c0 27.820312-22.550781 50.371093-50.371094 50.371093s-50.371094-22.550781-50.371094-50.371093c0-27.820313 22.550781-50.371094 50.371094-50.371094s50.371094 22.550781 50.371094 50.371094zm0 0" fill="#ffdcce"/><path d="m406.402344 194.585938c0 27.820312-22.550782 50.371093-50.371094 50.371093-27.816406 0-50.367188-22.550781-50.367188-50.371093 0-27.820313 22.550782-50.371094 50.367188-50.371094 27.820312 0 50.371094 22.550781 50.371094 50.371094zm0 0" fill="#ffdcce"/><path d="m134.515625 222.636719c-4.269531 0-7.726563-3.460938-7.726563-7.726563v-17.140625c0-4.265625 3.457032-7.726562 7.726563-7.726562s7.726563 3.460937 7.726563 7.726562v17.140625c0 4.265625-3.457032 7.726563-7.726563 7.726563zm0 0" fill="#4b5562"/><path d="m356.03125 222.636719c-4.265625 0-7.722656-3.460938-7.722656-7.726563v-17.140625c0-4.265625 3.457031-7.726562 7.722656-7.726562 4.269531 0 7.726562 3.460937 7.726562 7.726562v17.140625c0 4.265625-3.457031 7.726563-7.726562 7.726563zm0 0" fill="#4b5562"/><path d="m454.042969 173.355469h-417.539063c-9.988281 0-17.121094-9.804688-13.902344-19.257813 3.824219-11.230468 8.5-22.144531 14-32.667968 2.539063-4.851563 7.542969-7.917969 13.019532-7.917969h391.308594c5.480468 0 10.480468 3.066406 13.019531 7.917969 5.5 10.523437 10.175781 21.4375 14 32.667968 3.21875 9.453125-3.917969 19.257813-13.90625 19.257813zm0 0" fill="#ebebeb"/><path d="m53.507812 154.097656c3.820313-11.230468 8.5-22.144531 14-32.667968 2.539063-4.851563 7.539063-7.917969 13.015626-7.917969h-30.90625c-5.476563 0-10.476563 3.066406-13.015626 7.917969-5.5 10.523437-10.175781 21.4375-14 32.667968-3.21875 9.453125 3.914063 19.257813 13.902344 19.257813h30.90625c-9.988281 0-17.125-9.804688-13.902344-19.257813zm0 0" fill="#d5d4da"/><path d="m245.273438 282.300781c-8.6875 0-16.847657-3.636719-22.390626-9.972656-2.808593-3.214844-2.480468-8.097656.734376-10.902344 3.210937-2.808593 8.09375-2.480469 10.902343.730469 2.605469 2.984375 6.527344 4.691406 10.753907 4.691406 4.230468 0 8.152343-1.710937 10.757812-4.691406 2.808594-3.214844 7.6875-3.539062 10.902344-.730469 3.210937 2.804688 3.539062 7.6875.730468 10.902344-5.539062 6.335937-13.703124 9.972656-22.390624 9.972656zm0 0" fill="#4b5562"/></svg>