<svg xmlns="http://www.w3.org/2000/svg" viewBox="0 0 512 512">
    <path d="M415.7 192.4h-318c-15.8 46.9-37.9 120.5-40.3 172-2.1 44.4 5.8 84.5 13.3 111.6 5.9 21.4 24.2 36 44.9 36h282.3c20.7 0 39-14.6 44.9-36 7.5-27.1 15.4-67.1 13.3-111.6-2.5-51.5-24.6-125.1-40.4-172z" fill="#546370"/>
    <path d="M157.3 276.6c0 22.9-18.6 41.5-41.6 41.5-22.9 0-41.5-18.6-41.5-41.5S92.8 235 115.8 235c22.9 0 41.5 18.6 41.5 41.6z" fill="#ffb39d"/>
    <path d="M439.1 276.6c0 22.9-18.6 41.5-41.5 41.5S356 299.5 356 276.6s18.6-41.6 41.5-41.6 41.6 18.6 41.6 41.6z" fill="#ffcbbe"/>
    <path d="M369.6 512H143.8c-26.3 0-47.7-21.3-47.7-47.7v-27.1c0-42.2 34.2-76.3 76.3-76.3h168.4c42.2 0 76.3 34.2 76.3 76.3v27.1c.1 26.4-21.2 47.7-47.5 47.7z" fill="#b18cd9"/>
    <path d="M300.7 452.9v-92H172.4c-42.2 0-76.3 34.2-76.3 76.3v27.1c0 26.3 21.3 47.7 47.7 47.7h128.4c29.1-25.1 28.5-59.1 28.5-59.1z" fill="#996acc"/>
    <path d="M285.1 398.4h-57c-60 0-108.7-48.7-108.7-108.7v-80.5c0-75.8 61.4-137.2 137.2-137.2 75.8 0 137.2 61.4 137.2 137.2v80.5c.1 60.1-48.6 108.7-108.7 108.7z" fill="#ffddcf"/>
    <path d="M183.6 226C172.9 135.2 260.1 86.8 285 74.9c-9.1-1.9-18.6-2.9-28.4-2.9-75.8 0-137.2 61.4-137.2 137.2v80.5c0 57.4 44.5 104.4 100.8 108.4-46.5-25.7-26.6-86.9-36.6-172.1z" fill="#ffcbbe"/>
    <path d="M320.3 306.1c-4.3 0-7.7-3.5-7.7-7.7v-12.8c0-4.3 3.5-7.7 7.7-7.7 4.3 0 7.7 3.5 7.7 7.7v12.8c.1 4.3-3.4 7.7-7.7 7.7zM193 306.1c-4.3 0-7.7-3.5-7.7-7.7v-12.8c0-4.3 3.5-7.7 7.7-7.7s7.7 3.5 7.7 7.7v12.8c0 4.3-3.4 7.7-7.7 7.7z" fill="#454545"/>
    <path d="M336.1 327.4h-11.4c-4.1 0-7.5-3.4-7.5-7.5s3.4-7.5 7.5-7.5h11.4c4.1 0 7.5 3.3 7.5 7.5 0 4.1-3.3 7.5-7.5 7.5zM188.6 327.4h-11.4c-4.1 0-7.5-3.4-7.5-7.5s3.3-7.5 7.5-7.5h11.4c4.1 0 7.5 3.3 7.5 7.5 0 4.1-3.3 7.5-7.5 7.5z" fill="#e15f76"/>
    <path d="M380.4 287c-14.2 24.7-33.9 36.3-48.7 41.4-10.3 3.6-21.7.3-29-7.8-6.4-7.1-13.2-12-19.6-15.4-16.5-8.9-36.5-8.9-53 0-6.4 3.4-13.3 8.4-19.6 15.4-7.3 8.1-18.6 11.4-29 7.8-14.8-5.1-34.5-16.7-48.7-41.4-5.5-9.6-20.1-6.4-21.1 4.5-3.7 39.2 1.6 98.1 56.5 133.3 25.9 16.6 44.3 28 57.2 35.9 19.2 11.6 43.2 11.6 62.3 0 13-7.9 31.3-19.3 57.2-35.9 54.9-35.2 60.2-94.1 56.5-133.3-.9-10.9-15.5-14.1-21-4.5z" fill="#a5b1bd"/>
    <path d="M256.7 360.5c7.4 0 14.2-3.7 18.2-9.8 2.3-3.6 1.4-8.4-2.2-10.7-1.3-.9-7.1-3.1-10.7 2.2-1.7 2.5-4.3 2.8-5.3 2.8s-3.6-.3-5.3-2.8c-2.3-3.6-7.1-4.6-10.7-2.2-3.6 2.3-4.6 7.1-2.2 10.7 4 6.1 10.8 9.8 18.2 9.8z" fill="#454545"/>
    <path d="M235.1 412.5c-45.6-20.7-47.2-82.7-47.2-82.7-2.2-.2-4.2-.6-6.4-1.3-14.8-5.1-34.5-16.7-48.7-41.4-5.5-9.6-20.1-6.4-21.1 4.5-3.7 39.2 1.6 98.1 56.5 133.3 25.9 16.6 44.3 28 57.2 35.9 19.1 11.6 43.1 11.6 62.3 0 3.8-2.3 8.1-4.9 12.9-7.9-12.6-14.1-33.8-26-65.5-40.4z" fill="#8697a6"/>
    <path d="M112.8 205.4s8.9 36.8-8 62.3c-3.9 5.8-.8 13.7 6 15.2 22.6 5 66 4.3 96.8-60.1-.5 1-94.8-17.4-94.8-17.4z" fill="#6b7d8e"/>
    <path d="M400.5 205.4s-8.9 36.8 8 62.3c3.9 5.8.8 13.7-6 15.2-22.6 5-66 4.3-96.8-60.1.5 1 94.8-17.4 94.8-17.4z" fill="#8697a6"/>
    <path d="M110.8 174.3s.4-40.4 16.5-75.6c7.2-15.7 2.3-34.3-11.5-44.7-4.4-3.3-8.9-6.6-13.4-9.8-9-6.3-7-20.1 3.3-23.6 45.8-15.5 142.8-40.1 210.8 5.6 91.8 61.7 94.2 148 94.2 148s-159.6 57.1-299.9.1z" fill="#b18cd9"/>
    <path d="M127.4 98.8c-16.1 35.1-16.5 75.6-16.5 75.6 33.8 13.7 68.7 20.8 102.2 23.7-18.2-30.6-22.9-71.7-31.9-98.2-16-47.2-65.3-45.8-65.3-45.8 13.8 10.4 18.7 28.9 11.5 44.7z" fill="#996acc"/>
    <path d="M256.7 238.6c-54.1 0-107.6-8.5-159-25.2-13.5-4.4-20.9-18.9-16.5-32.4 4.4-13.5 18.9-20.9 32.5-16.5 46.3 15 94.4 22.7 143.1 22.7 48.7 0 96.8-7.6 143.1-22.7 13.5-4.4 28.1 3 32.5 16.5 4.4 13.5-3 28.1-16.5 32.5-51.6 16.6-105.1 25.1-159.2 25.1z" fill="#c7aee4"/>
    <path d="M263.9 57.4l6.3 12.7c2 4.1 5.9 6.9 10.4 7.6l14 2c9.3 1.4 13 12.8 6.3 19.4l-10.1 9.9c-3.3 3.2-4.8 7.8-4 12.3l2.4 14c1.6 9.3-8.1 16.3-16.5 12l-12.5-6.6c-4-2.1-8.9-2.1-12.9 0l-12.5 6.6c-8.3 4.4-18.1-2.7-16.5-12l2.4-14c.8-4.5-.7-9.1-4-12.3l-10.1-9.9c-6.7-6.6-3-18 6.3-19.4l14-2c4.5-.7 8.4-3.5 10.4-7.6l6.3-12.7c4.1-8.4 16.1-8.4 20.3 0z" fill="#f9ee80"/>
    <path d="M165.8 205.4c2.4-21.8 25.6-22.4 35.6-21.7-29.8-3.6-59.1-10-87.8-19.4-13.5-4.4-28.1 3-32.5 16.5-4.4 13.5 3 28.1 16.5 32.5 26.7 8.7 54 15.1 81.6 19.3-7.7-5.3-14.9-13.9-13.4-27.2z" fill="#b18cd9"/>
</svg>
