<svg xmlns="http://www.w3.org/2000/svg" viewBox="0 0 511 511">
    <path d="M454.9 204.4c0 18.9-15.4 34.3-34.3 34.3s-34.3-15.4-34.3-34.3 15.4-34.3 34.3-34.3 34.3 15.4 34.3 34.3zM125.1 204.4c0 18.9-15.4 34.3-34.3 34.3s-34.3-15.4-34.3-34.3 15.4-34.3 34.3-34.3 34.3 15.4 34.3 34.3z" fill="#cc9883"/>
    <path d="M97.8 502.5c0-87.2 70.7-157.9 157.9-157.9s157.9 70.7 157.9 157.9H97.8z" fill="#5c626b"/>
    <path d="M209.2 406.2c10.4 14.3 26.3 30 46.5 30 20.1 0 36.1-15.6 46.5-30 6.3 5.9 14.5 10.2 25 10.2 13.1 0 25.1-9.5 36.6-29.1-28.2-26.5-66.2-42.7-107.9-42.7-41.8 0-79.8 16.3-108.1 42.8 11.5 19.5 23.5 29 36.5 29 10.3 0 18.6-4.3 24.9-10.2z" fill="#535860"/>
    <path d="M286 469.1h-60.9c-4.2 0-7.6-3.4-7.6-7.6v-185h76v185c.1 4.2-3.3 7.6-7.5 7.6z" fill="#dfe0e0"/>
    <path d="M255.6 276.5h-38v185c0 4.2 3.4 7.6 7.6 7.6h30.4V276.5z" fill="#c9caca"/>
    <path d="M217.6 416.5c9.9 10.6 22.7 19.6 38 19.6s28.2-9 38-19.6v-140h-76v140z" fill="#c9caca"/>
    <path d="M270.7 345.4c-4.9-.5-9.9-.7-15-.7-87.2 0-157.9 70.7-157.9 157.9h29.9c.1-82.2 62.8-149.7 143-157.2z" fill="#535860"/>
    <path d="M89.1 169c-2 10.3-3 21-3 31.9 0 93.7 75.9 169.6 169.6 169.6 93.7 0 169.6-75.9 169.6-169.6 0-10.9-1-21.6-3-31.9H89.1z" fill="#fbc4ac"/>
    <path d="M425.3 200.6c0-10.8-1.1-21.4-3-31.6H89.1c-1.9 10.2-3 20.8-3 31.6h339.2z" fill="#e3b098"/>
    <path d="M422.7 143.2h-44s-.4 126.9-44.9 126.9-32.7-52.3-78.2-52.3-33.7 52.3-78.2 52.3-44.9-126.9-44.9-126.9h-44s-5.8 49-5.8 79.7c0 93.2 32.2 154.4 45.2 154.4s19.7-24.7 19.7-24.7 18 48.9 36.6 48.9 25.3-24.2 25.3-24.2 19.8 43.9 46.2 43.9 46.2-43.9 46.2-43.9 6.7 24.2 25.3 24.2 36.6-48.9 36.6-48.9 6.7 24.7 19.7 24.7 45.2-61.2 45.2-154.4c-.2-30.7-6-79.7-6-79.7z" fill="#e15f76"/>
    <g fill="#bf5164">
        <path d="M83.4 200.6h53.8c-4.7-29.6-4.8-57.4-4.8-57.4h-44c.1 0-3.4 29.8-5 57.4zM427.8 200.6c-1.6-27.6-5.1-57.4-5.1-57.4h-44s-.1 27.8-4.8 57.4h53.9z"/>
        <path d="M112.6 222.9c0-30.7 5.8-79.7 5.8-79.7H88.5s-5.8 49-5.8 79.7c0 93.2 32.2 154.4 45.2 154.4 7.1 0 12.3-7.3 15.5-13.9-14.2-23.2-30.8-73.6-30.8-140.5z"/>
    </g>
    <path d="M426.7 154.7C409.6 76 339.4 17 255.7 17S101.8 76 84.6 154.7h342.1z" fill="#9b6a57"/>
    <path d="M270.7 17.6c-4.9-.4-9.9-.6-15-.6C172 17 101.8 76 84.6 154.7h29.9c16.2-73.9 79.2-130.5 156.2-137.1z" fill="#845a4a"/>
    <path d="M281.4 178.7H230c-2.9 0-5.2-2.3-5.2-5.2V11.7c0-2.9 2.3-5.2 5.2-5.2h51.4c2.9 0 5.2 2.3 5.2 5.2v161.7c0 2.9-2.3 5.3-5.2 5.3z" fill="#d9c477"/>
    <path d="M41.1 8l11.5 19.8C67.7 53.6 94.5 70.5 124.3 73c23.7 2 38.5 26.8 28.9 48.6-7.3 16.7-26.3 24.9-43.5 18.8l-9.5-3.4c-34.1-12.2-57.8-43.1-60.8-79.2l-4-48c-.2-3.2 4.1-4.6 5.7-1.8z" fill="#dfe0e0"/>
    <path d="M36.9 6.9c-.9.5-1.6 1.5-1.5 2.9l3.9 48.1c2.9 36 26.7 67 60.8 79.2l9.5 3.4c17.2 6.1 36.2-2.1 43.5-18.8 2.2-5.1 3.1-10.4 2.9-15.5-20.8-4.3-54.6-11.5-71.4-15.8-21.5-5.6-42-65.7-47.7-83.5z" fill="#c9caca"/>
    <path d="M470.3 8l-11.5 19.8a92.274 92.274 0 0 1-71.6 45.3c-23.7 2-38.5 26.8-28.9 48.6 7.3 16.7 26.3 24.9 43.5 18.8l9.5-3.4c34.1-12.2 57.8-43.1 60.8-79.2L476 9.8c.2-3.2-4.1-4.6-5.7-1.8z" fill="#dfe0e0"/>
    <path d="M474.5 6.9c.9.5 1.6 1.5 1.5 2.9l-4 48.1c-2.9 36-26.7 67-60.8 79.2l-9.5 3.4c-17.2 6.1-36.2-2.1-43.5-18.8-2.2-5.1-3.1-10.4-2.9-15.5 20.8-4.3 54.6-11.5 71.4-15.8 21.6-5.6 42.1-65.7 47.8-83.5z" fill="#c9caca"/>
    <path d="M72.5 123.8h366.4c4.9 0 8.9 4 8.9 8.9v44.1c0 4.9-4 8.9-8.9 8.9H72.5c-4.9 0-8.9-4-8.9-8.9v-44.1c0-4.9 4-8.9 8.9-8.9z" fill="#ffe78c"/>
    <path d="M93.5 176.7v-44.1c0-4.9 4-8.9 8.9-8.9H72.5c-4.9 0-8.9 4-8.9 8.9v44.1c0 4.9 4 8.9 8.9 8.9h29.9c-4.9 0-8.9-4-8.9-8.9z" fill="#d9c477"/>
    <path d="M335.1 250.3h-11.4c-4.1 0-7.5-3.4-7.5-7.5s3.4-7.5 7.5-7.5h11.4c4.1 0 7.5 3.3 7.5 7.5s-3.3 7.5-7.5 7.5zM187.6 250.3h-11.4c-4.1 0-7.5-3.4-7.5-7.5s3.3-7.5 7.5-7.5h11.4c4.1 0 7.5 3.3 7.5 7.5s-3.3 7.5-7.5 7.5z" fill="#e15f76"/>
    <path d="M276.2 254.5c-3.6-2.1-8.2-.8-10.2 2.8-2.1 3.7-6.1 6-10.3 6-4.2 0-8.2-2.3-10.3-6a7.52 7.52 0 0 0-10.2-2.8 7.52 7.52 0 0 0-2.8 10.2c4.8 8.3 13.7 13.5 23.3 13.5 9.6 0 18.5-5.2 23.3-13.5 2-3.6.8-8.1-2.8-10.2zM329.5 202.5c-4.1 0-7.5 3.3-7.5 7.5v11.4c0 4.1 3.3 7.5 7.5 7.5 4.1 0 7.5-3.4 7.5-7.5V210c-.1-4.1-3.4-7.5-7.5-7.5zM181.9 202.5c-4.1 0-7.5 3.3-7.5 7.5v11.4c0 4.1 3.4 7.5 7.5 7.5s7.5-3.4 7.5-7.5V210c0-4.1-3.3-7.5-7.5-7.5z"/>
</svg>
