<svg xmlns="http://www.w3.org/2000/svg" viewBox="0 0 512 512">
    <path d="M432.068 452.795c-3.832-21.891-10.93-40.888-19.306-57-8.365-16.091-18.008-29.298-26.888-39.59l-259.791.041c-17.76 20.593-38.498 52.807-46.142 96.549-3.111 17.822-4.049 37.56-1.731 59.204h355.588c2.318-21.643 1.381-41.381-1.73-59.204z" fill="#3a444a"/>
    <path d="M221.169 430.455a160.386 160.386 0 0 0 34.779 3.806c11.797 0 23.428-1.287 34.779-3.804v-52.24h-69.559v52.239h.001z" fill="#eaeaf1"/>
    <g fill="#2f393b">
        <path d="M127.686 512v-53.905a7.726 7.726 0 1 1 15.452 0V512h-15.452zM368.862 512v-53.905a7.726 7.726 0 1 1 15.452 0V512h-15.452z"/>
    </g>
    <path d="M432.784 82.702a221.574 221.574 0 0 0-18.435-19.888 225.572 225.572 0 0 0-39.342-30.067c.114-.069.075-.109-.176-.109C339.495 11.38 298.617 0 255.948 0s-83.547 11.38-118.883 32.638a225.605 225.605 0 0 0-39.518 30.176 221.428 221.428 0 0 0-18.435 19.888c-31.041 37.869-47.922 84.34-48.004 133.332v.113h449.68v-.113c-.082-48.992-16.963-95.462-48.004-133.332z" fill="#eaeaf1"/>
    <path d="M151.225 82.702a221.439 221.439 0 0 1 18.435-19.888 225.567 225.567 0 0 1 39.518-30.176c25.237-15.183 53.302-25.323 82.827-29.88A236.145 236.145 0 0 0 255.948 0c-42.669 0-83.547 11.38-118.883 32.638a225.605 225.605 0 0 0-39.518 30.176 221.428 221.428 0 0 0-18.435 19.888c-31.041 37.869-47.922 84.34-48.004 133.332v.113h72.113v-.113c.082-48.992 16.963-95.462 48.004-133.332z" fill="#cccdd9"/>
    <path d="M445.087 184.07c-21.947 2.313-39.052 20.876-39.052 43.436 0 24.125 19.557 43.682 43.682 43.682s43.682-19.557 43.682-43.682c0-22.561-17.104-41.123-39.052-43.436h-9.26z" fill="#f0b795"/>
    <path d="M451.952 216.004c-1.755-1.476-26.559-23.132-35.003-74.633-3.383-20.633-21.157-35.816-42.065-35.816H137.118c-20.909 0-38.682 15.183-42.064 35.816-8.756 53.4-35.111 74.721-35.111 74.721.197 103.453 87.873 187.261 196.005 187.261s195.809-83.807 196.005-187.261l-.001-.001h.001l-.001-.087z" fill="#fbcdb0"/>
    <path d="M135.623 335.101c-36.535-42.363-44.113-102.205-21.42-153.337 4.729-10.653 9.07-24.015 11.755-40.392 3.383-20.633 21.157-35.816 42.064-35.816h-30.905c-20.909 0-38.682 15.183-42.064 35.816-3.338 20.356-9.232 36.038-15.251 47.668-2.988-2.625-7.126-4.362-12.888-4.97h-9.261c-21.947 2.314-39.052 20.876-39.052 43.436 0 24.125 19.557 43.683 43.682 43.683 2.267 0 4.33-.173 6.208-.507 24.539 76.807 99.176 132.673 187.457 132.673 5.225 0 10.401-.201 15.522-.585-54.615-4.06-102.956-29.529-135.847-67.669z" fill="#f0b795"/>
    <g fill="#3a444a">
        <path d="M149.513 258.863a7.726 7.726 0 0 1-7.726-7.726v-20.706a7.726 7.726 0 1 1 15.452 0v20.706a7.726 7.726 0 0 1-7.726 7.726zM362.488 258.863a7.726 7.726 0 0 1-7.726-7.726v-20.706a7.726 7.726 0 1 1 15.452 0v20.706a7.725 7.725 0 0 1-7.726 7.726zM256.001 288.126c-9.653 0-18.715-4.034-24.864-11.068a7.726 7.726 0 1 1 11.634-10.17c3.214 3.677 8.035 5.785 13.23 5.785 5.193 0 10.015-2.109 13.23-5.785a7.725 7.725 0 0 1 10.902-.732 7.724 7.724 0 0 1 .731 10.902c-6.148 7.034-15.211 11.068-24.863 11.068z"/>
    </g>
    <g fill="#f9666a">
        <path d="M163.614 289.296h-28.201a7.726 7.726 0 1 1 0-15.452h28.201a7.726 7.726 0 1 1 0 15.452zM376.588 289.296h-28.201a7.726 7.726 0 1 1 0-15.452h28.201a7.726 7.726 0 1 1 0 15.452z"/>
    </g>
</svg>
