<svg height="512pt" viewBox="-81 0 512 512" width="512pt" xmlns="http://www.w3.org/2000/svg">
    <path d="M175.059 0C123.55 0 89.555 54.848 89.555 54.848v48.703h171.007V54.848S226.566 0 175.06 0zm0 0" fill="#e15f76"/>
    <path d="M12.113 512c0-89.992 72.953-162.945 162.946-162.945 89.992 0 162.949 72.953 162.949 162.945zm0 0" fill="#5c626b"/>
    <path d="M175.059 349.055c-89.993 0-162.946 72.953-162.946 162.945H175.06zm0 0" fill="#535860"/>
    <path d="M175.059 347.582h-60.965v33.281a5.751 5.751 0 0 0 3.168 5.14c7.554 3.806 28.234 12.614 57.797 12.614s50.242-8.808 57.796-12.613a5.751 5.751 0 0 0 3.168-5.14v-33.282zm0 0" fill="#535860"/>
    <path d="M117.262 386.004c7.554 3.805 28.234 12.613 57.797 12.613v-51.035h-60.965v33.281a5.751 5.751 0 0 0 3.168 5.14zm0 0" fill="#3f444c"/>
    <path d="M350.117 200.691c0 96.68-78.375 175.059-175.058 175.059C78.379 375.75 0 297.371 0 200.691 0 104.008 78.379 25.633 175.059 25.633c96.683 0 175.058 78.375 175.058 175.058zm0 0" fill="#5c626b"/>
    <path d="M30.906 200.691c0-91.472 70.164-166.546 159.606-174.37a177.356 177.356 0 0 0-15.453-.688C78.375 25.633 0 104.008 0 200.69c0 96.68 78.379 175.059 175.059 175.059 5.207 0 10.359-.242 15.453-.688-89.442-7.824-159.606-82.898-159.606-174.37zm0 0" fill="#535860"/>
    <path d="M348.883 179.906C338.605 93.023 264.707 25.633 175.059 25.633c-89.649 0-163.543 67.39-173.825 154.273 1.04.34 2.106.633 3.207.828l166.547 29.512c1.34.238 2.711.36 4.07.36 1.364 0 2.731-.122 4.07-.36l166.548-29.512a22.839 22.839 0 0 0 3.207-.828zm0 0" fill="#535860"/>
    <path d="M236.117 278.625H114c-27.535 0-49.855-22.32-49.855-49.855 0-27.536 22.32-49.86 49.855-49.86h122.117c27.535 0 49.86 22.324 49.86 49.86 0 27.53-22.325 49.855-49.86 49.855zm0 0" fill="#fbc4ac"/>
    <path d="M84.746 228.77c0-27.536 22.32-49.86 49.856-49.86H114c-27.535 0-49.855 22.324-49.855 49.86 0 27.535 22.32 49.855 49.855 49.855h20.602c-27.536 0-49.856-22.324-49.856-49.855zm0 0" fill="#e3b098"/>
    <path d="M236.117 178.91H114c-13.934 0-26.523 5.723-35.57 14.938l92.558 16.398c1.34.238 2.711.36 4.07.36 1.364 0 2.731-.122 4.07-.36l92.56-16.398c-9.047-9.215-21.637-14.938-35.57-14.938zm0 0" fill="#e3b098"/>
    <path d="M7.137 78.68l166.55-29.512a7.885 7.885 0 0 1 2.743 0L342.98 78.68a7.864 7.864 0 0 1 6.493 7.742v71.355a7.864 7.864 0 0 1-6.493 7.743L176.43 195.03c-.907.16-1.836.16-2.743 0L7.137 165.52a7.86 7.86 0 0 1-6.489-7.743V86.422a7.86 7.86 0 0 1 6.489-7.742zm0 0" fill="#5c626b"/>
    <path d="M175.059 257.195c-9.782 0-18.887-5.27-23.766-13.757a7.496 7.496 0 0 1 2.762-10.239 7.499 7.499 0 0 1 10.242 2.766 12.45 12.45 0 0 0 10.762 6.23c4.43 0 8.55-2.386 10.761-6.23a7.499 7.499 0 0 1 10.243-2.766 7.496 7.496 0 0 1 2.761 10.238c-4.879 8.489-13.984 13.758-23.765 13.758zm0 0M240.672 227.035a7.497 7.497 0 0 1-7.5-7.5V207.84c0-4.145 3.355-7.5 7.5-7.5a7.5 7.5 0 0 1 7.5 7.5v11.695a7.5 7.5 0 0 1-7.5 7.5zm0 0M109.45 227.035a7.497 7.497 0 0 1-7.5-7.5V207.84c0-4.145 3.355-7.5 7.5-7.5a7.5 7.5 0 0 1 7.5 7.5v11.695a7.5 7.5 0 0 1-7.5 7.5zm0 0" fill="#3f444c"/>
    <path d="M246.52 249.148h-11.7a7.5 7.5 0 1 1 0-15h11.7a7.5 7.5 0 0 1 7.5 7.5c0 4.145-3.356 7.5-7.5 7.5zm0 0M115.297 249.148h-11.7a7.497 7.497 0 0 1-7.5-7.5 7.5 7.5 0 0 1 7.5-7.5h11.7a7.5 7.5 0 1 1 0 15zm0 0" fill="#e15f76"/>
    <g fill="#3f444c">
        <path d="M46.8 151.64c-4.14 0-7.5-3.359-7.5-7.5v-40.324a7.5 7.5 0 1 1 15 0v40.325a7.5 7.5 0 0 1-7.5 7.5zm0 0M89.555 161.941a7.5 7.5 0 0 1-7.5-7.5V93.516c0-4.145 3.355-7.5 7.5-7.5a7.5 7.5 0 0 1 7.5 7.5v60.925c0 4.141-3.36 7.5-7.5 7.5zm0 0M132.309 172.242a7.497 7.497 0 0 1-7.5-7.5V83.215c0-4.145 3.355-7.5 7.5-7.5a7.5 7.5 0 0 1 7.5 7.5v81.527a7.5 7.5 0 0 1-7.5 7.5zm0 0M175.059 182.543a7.497 7.497 0 0 1-7.5-7.5V72.91a7.5 7.5 0 0 1 7.5-7.5 7.5 7.5 0 0 1 7.5 7.5v102.133c0 4.144-3.356 7.5-7.5 7.5zm0 0M217.813 172.242a7.497 7.497 0 0 1-7.5-7.5V83.215c0-4.145 3.355-7.5 7.5-7.5a7.5 7.5 0 0 1 7.5 7.5v81.527a7.5 7.5 0 0 1-7.5 7.5zm0 0M260.563 161.941c-4.141 0-7.5-3.359-7.5-7.5V93.516a7.5 7.5 0 0 1 7.5-7.5c4.144 0 7.5 3.355 7.5 7.5v60.925a7.5 7.5 0 0 1-7.5 7.5zm0 0M303.316 151.64a7.5 7.5 0 0 1-7.5-7.5v-40.324a7.5 7.5 0 0 1 7.5-7.5 7.5 7.5 0 0 1 7.5 7.5v40.325c0 4.14-3.359 7.5-7.5 7.5zm0 0"/>
    </g>
</svg>
